<svg t="1726655400478" class="icon" viewBox="0 0 1024 1024" version="1.1" xmlns="http://www.w3.org/2000/svg" p-id="1206" width="200" height="200"><path d="M857.09312 1022.35648a193.19808 193.19808 0 0 1-25.05984 1.60512V1024H192.03328v-0.0384A191.7312 191.7312 0 0 1 1.6768 806.94016L61.82144 350.08h0.02304a191.87456 191.87456 0 0 1 116.85888-152.32 38.4 38.4 0 1 1 29.3888 70.95296 115.12832 115.12832 0 0 0-70.11584 91.392h-0.01024L97.8688 664.67584l-20.04992 152.28672A115.03616 115.03616 0 0 0 192.03328 947.17696V947.2h640v-0.02304a115.0336 115.0336 0 0 0 114.2144-130.2144l-20.04992-152.28672-40.09728-304.57088a115.13088 115.13088 0 0 0-70.11584-91.392 38.4 38.4 0 1 1 29.39136-70.95296 191.87968 191.87968 0 0 1 116.85888 152.32h0.02304l60.14464 456.86016a192 192 0 0 1-165.30944 215.41632zM741.3888 763.904a638.40512 638.40512 0 0 1-219.01568 42.496h2.1504c-1.47456 0.02816-2.95424 0.01536-4.4288 0.03584-2.688 0.03328-5.376 0.06656-8.06144 0.064s-5.376-0.03072-8.06144-0.064c-1.47456-0.02048-2.95424 0-4.4288-0.03584h2.1504a638.40512 638.40512 0 0 1-219.01568-42.496 38.4 38.4 0 0 1 27.52256-71.69792 561.63328 561.63328 0 0 0 403.66592 0 38.4 38.4 0 1 1 27.52256 71.69792zM550.43328 192a38.4 38.4 0 0 1 0 76.8h-76.8a38.4 38.4 0 0 1 0-76.8h76.8z m165.39648 130.46272a38.4 38.4 0 0 1-47.02976-27.15392L635.68128 171.67104a127.91808 127.91808 0 0 0-91.15648-90.66496q-2.6112-0.68608-5.23008-1.25952l-1.0496-0.22528q-2.60864-0.54784-5.21728-0.98048c-0.41216-0.06912-0.82432-0.13824-1.23648-0.20224-1.63072-0.256-3.25888-0.4736-4.88448-0.6656-0.55296-0.064-1.10592-0.13312-1.66144-0.18944-1.44896-0.15104-2.89536-0.256-4.352-0.3712-0.75008-0.0512-1.50016-0.10752-2.2528-0.14592a125.53984 125.53984 0 0 0-3.66592-0.128c-0.97792-0.0256-1.9584-0.0384-2.94144-0.0384s-1.96352 0.02304-2.944 0.04352c-1.22112 0.02816-2.44224 0.064-3.66592 0.128-0.75264 0.0384-1.50272 0.09216-2.2528 0.14592-1.44384 0.1024-2.89024 0.2176-4.352 0.3712-0.55552 0.05888-1.10848 0.12544-1.66144 0.18944-1.6256 0.192-3.25376 0.4096-4.88448 0.6656-0.41216 0.064-0.82432 0.13568-1.23648 0.20224q-2.60864 0.43776-5.21728 0.98048l-1.0496 0.22528q-2.61888 0.57088-5.23264 1.25952A127.91808 127.91808 0 0 0 388.38528 171.67104l-33.12896 123.648a38.4 38.4 0 0 1-74.18368-19.87584l33.12896-123.648A204.66432 204.66432 0 0 1 459.04128 7.0016v-0.02304c0.3456-0.09216 0.6912-0.15872 1.024-0.256q4.15744-1.09568 8.36864-2.01728l1.67936-0.36096q4.15488-0.87296 8.35072-1.56928c0.65792-0.11008 1.3184-0.22016 1.97888-0.32512q3.8912-0.60928 7.81568-1.06496c0.88576-0.10496 1.77152-0.20992 2.65728-0.30464 2.304-0.24064 4.6208-0.43008 6.94272-0.59136 1.20064-0.08448 2.40384-0.16896 3.60448-0.23296a202.68032 202.68032 0 0 1 5.86496-0.2048C508.89472 0.02048 510.464 0 512.03328 0s3.13856 0.03328 4.7104 0.06912c1.96096 0.04352 3.91424 0.10496 5.86496 0.2048 1.20064 0.064 2.40128 0.14848 3.60448 0.23296 2.32192 0.16128 4.63616 0.35328 6.94272 0.59136 0.88576 0.09216 1.77152 0.19968 2.65728 0.30464q3.92448 0.4608 7.81568 1.06496c0.66048 0.10496 1.32096 0.21504 1.97888 0.32512q4.19584 0.70144 8.34816 1.56928 0.83968 0.17664 1.67936 0.36096 4.2112 0.9216 8.3712 2.01728c0.34304 0.0896 0.68864 0.15616 1.024 0.256v0.02304a204.66432 204.66432 0 0 1 144.82176 144.79104l33.12896 123.648a38.4 38.4 0 0 1-27.15136 47.00416z" p-id="1207"></path></svg>