<svg t="1726656650813" class="icon" viewBox="0 0 1024 1024" version="1.1" xmlns="http://www.w3.org/2000/svg" p-id="1396" width="200" height="200"><path d="M85.333333 109.653333m85.333334 0l200.533333 0q85.333333 0 85.333333 85.333334l0 200.533333q0 85.333333-85.333333 85.333333l-200.533333 0q-85.333333 0-85.333334-85.333333l0-200.533333q0-85.333333 85.333334-85.333334Z" p-id="1397"></path><path d="M85.333333 567.466667m85.333334 0l200.533333 0q85.333333 0 85.333333 85.333333l0 200.533333q0 85.333333-85.333333 85.333334l-200.533333 0q-85.333333 0-85.333334-85.333334l0-200.533333q0-85.333333 85.333334-85.333333Z" p-id="1398"></path><path d="M546.986667 567.466667m85.333333 0l200.533333 0q85.333333 0 85.333334 85.333333l0 200.533333q0 85.333333-85.333334 85.333334l-200.533333 0q-85.333333 0-85.333333-85.333334l0-200.533333q0-85.333333 85.333333-85.333333Z" p-id="1399"></path><path d="M495.511676 295.655006m52.797307-52.797306l131.540717-131.540717q52.797306-52.797306 105.594613 0l131.540717 131.540717q52.797306 52.797306 0 105.594613l-131.540717 131.540717q-52.797306 52.797306-105.594613 0l-131.540717-131.540717q-52.797306-52.797306 0-105.594613Z" p-id="1400"></path></svg>