<svg t="1726657078297" class="icon" viewBox="0 0 1024 1024" version="1.1" xmlns="http://www.w3.org/2000/svg" p-id="1359" width="200" height="200"><path d="M901.791846 1024H122.230886a122.22976 122.22976 0 0 1-46.848-235.12064 1024.7296 1024.7296 0 0 1 873.2672 0A122.22976 122.22976 0 0 1 901.791846 1024zM512.011366 614.4a307.2 307.2 0 1 1 307.2-307.2 307.2 307.2 0 0 1-307.2 307.2z m144.81664-216.6912a38.4 38.4 0 0 0-54.30784 0 128 128 0 0 1-181.0176 0 38.4 38.4 0 0 0-54.30784 54.30784 204.8 204.8 0 0 0 289.63328 0 38.4 38.4 0 0 0 0-54.30784z" p-id="1360"></path></svg>